<svg xmlns="http://www.w3.org/2000/svg" xmlns:xlink="http://www.w3.org/1999/xlink" preserveAspectRatio="xMidYMid" width="29.188" height="29.88" viewBox="0 0 29.188 29.88">
  <defs>
    <style>
      .cls-1 {
        fill: #fff;
        filter: url(#color-overlay-1);
        fill-rule: evenodd;
      }
    </style>

    <filter id="color-overlay-1" filterUnits="userSpaceOnUse">
      <feFlood flood-color="#fffdfd"/>
      <feComposite operator="in" in2="SourceGraphic"/>
      <feBlend in2="SourceGraphic" result="solidFill"/>
    </filter>
  </defs>
  <path d="M28.592,28.572 L27.883,29.282 C27.099,30.065 25.829,30.065 25.045,29.282 L19.370,23.607 C18.713,22.949 18.641,21.964 19.087,21.196 L15.985,18.094 C14.317,19.332 12.258,20.073 10.021,20.073 C4.480,20.073 -0.011,15.582 -0.011,10.042 C-0.011,4.502 4.480,0.010 10.021,0.010 C15.561,0.010 20.052,4.502 20.052,10.042 C20.052,12.621 19.071,14.965 17.471,16.742 L20.506,19.777 C21.274,19.331 22.259,19.403 22.917,20.060 L28.592,25.735 C29.375,26.519 29.375,27.789 28.592,28.572 ZM17.523,10.000 C17.523,5.845 14.155,2.477 10.000,2.477 C8.842,2.477 7.759,2.759 6.780,3.226 C7.303,3.764 8.093,4.567 8.135,4.567 C7.320,4.567 4.651,7.236 4.651,8.114 C4.651,8.072 3.802,7.266 3.246,6.743 C2.767,7.732 2.476,8.828 2.476,10.000 C2.476,14.155 5.845,17.524 10.000,17.524 C14.155,17.524 17.523,14.155 17.523,10.000 Z" class="cls-1"/>
</svg>
